<svg width="756" height="752" viewBox="0 0 756 752" fill="none" xmlns="http://www.w3.org/2000/svg">
<path d="M381.979 752C309.032 752 245.368 672.423 213.537 554.384C303.726 537.143 425.747 526.533 554.4 555.711C521.242 672.423 456.253 752 381.979 752ZM206.905 529.185C196.295 484.092 190.989 435.019 190.989 383.295H576.947C576.947 436.346 570.316 485.418 559.705 530.511C427.074 500.007 301.074 510.617 206.905 529.185ZM380.653 0C449.621 0 515.937 75.5979 551.747 194.963C420.442 222.815 299.747 209.552 216.189 192.31C249.347 74.2716 311.684 0 380.653 0ZM209.558 218.836C259.958 229.446 322.295 238.73 393.916 238.73C445.642 238.73 501.347 233.425 558.379 221.489C568.989 263.929 575.621 309.023 576.947 356.769H192.316C192.316 309.023 198.947 262.603 209.558 218.836ZM164.463 383.295C164.463 437.672 171.095 488.071 180.379 534.49C119.368 547.753 75.6 564.995 54.379 572.952C21.2211 517.249 1.32632 452.261 0 383.295H164.463V383.295ZM603.474 383.295H756C754.674 453.587 733.453 519.901 698.968 576.931C661.832 559.69 623.368 547.753 586.232 537.143C596.842 489.397 603.474 437.672 603.474 383.295ZM754.674 356.769H603.474C602.147 307.697 595.516 259.951 584.905 216.183C624.695 206.899 663.158 193.637 700.295 177.721C732.126 230.773 752.021 291.781 754.674 356.769ZM684.379 153.848C649.895 168.437 614.084 180.374 578.274 189.658C554.4 108.755 517.263 46.4197 472.168 10.6102C555.726 31.8307 631.326 82.2293 684.379 153.848ZM291.789 7.95768C248.021 43.7672 212.211 106.102 189.663 187.005C133.958 173.742 92.8421 159.153 74.2737 151.196C128.653 78.2505 205.579 27.8519 291.789 7.95768ZM59.6842 173.742C75.6 180.374 120.695 197.616 184.358 213.531C173.747 258.624 167.116 307.697 165.789 356.769H1.32632C3.97895 291.781 23.8737 228.12 59.6842 173.742ZM70.2947 595.499C91.5158 587.541 132.632 572.952 187.011 561.016C209.558 643.245 246.695 708.233 293.116 745.369C201.6 722.822 123.347 668.444 70.2947 595.499ZM474.821 741.39C519.916 704.254 555.726 640.593 578.274 562.342C612.758 571.626 647.242 583.563 683.053 598.152C632.653 667.118 559.705 718.843 474.821 741.39Z" fill="#7F0101"/>
</svg>
