<svg width="695" height="695" viewBox="0 0 695 695" fill="none" xmlns="http://www.w3.org/2000/svg">
<path d="M488.6 240.752C485.584 232.943 480.966 225.851 475.044 219.935C469.121 214.018 462.025 209.408 454.212 206.401C443.454 202.416 432.091 200.31 420.62 200.174C401.544 199.306 395.824 199.089 347.5 199.089C299.176 199.089 293.457 199.306 274.38 200.174C262.897 200.306 251.522 202.412 240.752 206.401C232.943 209.416 225.851 214.034 219.935 219.956C214.018 225.879 209.408 232.976 206.401 240.789C202.416 251.546 200.31 262.909 200.175 274.38C199.306 293.456 199.089 299.176 199.089 347.5C199.089 395.824 199.306 401.543 200.175 420.62C200.306 432.103 202.412 443.478 206.401 454.248C209.416 462.057 214.034 469.149 219.957 475.065C225.879 480.982 232.976 485.592 240.789 488.599C251.547 492.584 262.909 494.69 274.38 494.825C293.457 495.694 299.176 495.875 347.5 495.875C395.824 495.875 401.544 495.694 420.62 494.789C432.101 494.669 443.476 492.576 454.248 488.599C462.058 485.584 469.149 480.966 475.066 475.043C480.982 469.121 485.592 462.024 488.6 454.211C492.584 443.454 494.69 432.091 494.826 420.62C495.694 401.543 495.875 395.824 495.875 347.5C495.875 299.176 495.694 293.456 494.789 274.38C494.67 262.899 492.576 251.524 488.6 240.752V240.752ZM347.5 440.456C329.115 440.456 311.143 435.004 295.856 424.79C280.57 414.576 268.655 400.058 261.62 383.073C254.584 366.087 252.743 347.397 256.33 329.365C259.917 311.333 268.77 294.77 281.77 281.77C294.77 268.77 311.334 259.917 329.365 256.33C347.397 252.743 366.087 254.584 383.073 261.62C400.059 268.655 414.576 280.57 424.79 295.856C435.005 311.143 440.456 329.115 440.456 347.5C440.456 372.154 430.663 395.797 413.23 413.23C395.797 430.663 372.154 440.456 347.5 440.456ZM444.112 272.606C439.817 272.606 435.618 271.333 432.046 268.946C428.474 266.56 425.691 263.168 424.047 259.199C422.403 255.231 421.973 250.864 422.811 246.651C423.649 242.438 425.717 238.568 428.755 235.53C431.792 232.493 435.662 230.424 439.875 229.586C444.088 228.748 448.455 229.178 452.424 230.822C456.392 232.466 459.784 235.25 462.171 238.821C464.557 242.393 465.831 246.592 465.831 250.888C465.831 256.648 463.543 262.172 459.47 266.245C455.397 270.318 449.873 272.606 444.112 272.606V272.606ZM407.842 347.5C407.842 359.434 404.303 371.101 397.673 381.024C391.042 390.947 381.618 398.682 370.592 403.249C359.566 407.816 347.433 409.011 335.728 406.682C324.023 404.354 313.271 398.607 304.832 390.168C296.393 381.729 290.646 370.977 288.318 359.272C285.989 347.567 287.184 335.434 291.751 324.408C296.319 313.382 304.053 303.958 313.976 297.328C323.899 290.697 335.566 287.158 347.5 287.158C363.504 287.158 378.852 293.515 390.168 304.832C401.485 316.148 407.842 331.496 407.842 347.5V347.5ZM347.5 0C278.771 0 211.586 20.3805 154.439 58.5643C97.2934 96.7481 52.7535 151.02 26.452 214.517C0.150566 278.015 -6.73109 347.885 6.67727 415.294C20.0856 482.702 53.1818 544.621 101.781 593.22C150.379 641.818 212.298 674.914 279.706 688.323C347.115 701.731 416.985 694.85 480.483 668.548C543.98 642.247 598.252 597.707 636.436 540.561C674.62 483.415 695 416.229 695 347.5C695 255.337 658.389 166.949 593.22 101.78C528.051 36.6115 439.663 0 347.5 0V0ZM527.404 422.104C527.097 437.123 524.245 451.982 518.97 466.048C514.321 478.069 507.212 488.985 498.099 498.099C488.986 507.212 478.069 514.321 466.048 518.969C451.994 524.241 437.148 527.093 422.14 527.404C402.811 528.272 396.657 528.49 347.5 528.49C298.343 528.49 292.19 528.272 272.86 527.404C257.853 527.093 243.006 524.241 228.952 518.969C216.931 514.321 206.015 507.212 196.901 498.099C187.788 488.985 180.679 478.069 176.031 466.048C170.759 451.994 167.907 437.147 167.597 422.14C166.728 402.81 166.511 396.657 166.511 347.5C166.511 298.343 166.728 292.19 167.597 272.86C167.895 257.855 170.735 243.008 175.994 228.952C180.643 216.921 187.755 205.995 196.875 196.875C205.995 187.755 216.921 180.643 228.952 175.994C243.009 170.735 257.855 167.895 272.86 167.596C292.19 166.728 298.343 166.51 347.5 166.51C396.657 166.51 402.811 166.728 422.14 167.596C437.146 167.895 451.992 170.735 466.048 175.994C478.072 180.647 488.991 187.761 498.105 196.881C507.218 206.001 514.325 216.925 518.97 228.952C524.241 243.006 527.093 257.852 527.404 272.86C528.273 292.19 528.49 298.343 528.49 347.5C528.49 396.657 528.273 402.81 527.404 422.14V422.104Z" fill="#7F0101"/>
</svg>
