<svg width="692" height="692" viewBox="0 0 692 692" fill="none" xmlns="http://www.w3.org/2000/svg">
<path d="M261.4 489.744H261.9V489.244V264.028V263.528H261.4H191.416H190.916V264.028V489.244V489.744H191.416H261.4ZM264.204 201.352L264.204 201.341C263.985 191.344 260.378 182.477 253.944 176.107C247.509 169.736 238.278 165.896 226.876 165.896C215.475 165.896 206.022 169.734 199.417 176.102C192.811 182.471 189.08 191.342 189.08 201.352C189.08 220.996 203.596 236.88 225.976 236.88C237.826 236.88 247.389 232.925 253.991 226.487C260.592 220.05 264.204 211.161 264.204 201.352ZM446.516 489.244V489.744H447.016H517V489.244H517.5V356.08C517.5 322.841 508.847 298.417 494.354 282.297C479.857 266.171 459.569 258.416 436.432 258.416C398.655 258.416 375.979 279.986 366.604 294.776H365.927L362.769 263.941L362.723 263.492H362.272H301.468H300.944L300.969 264.015C301.904 284.243 302.804 307.743 302.804 335.848V489.208V489.708H303.304H373.324H373.824V489.208V359.356C373.824 352.914 374.295 346.522 376.127 342.049L376.129 342.044C381.161 329.303 392.503 316.152 411.556 316.152C424.058 316.152 432.76 321.012 438.36 329.425C443.983 337.87 446.516 349.95 446.516 364.432V489.244ZM0.900002 346C0.900002 155.404 155.404 0.899902 346 0.899902C536.596 0.899902 691.1 155.404 691.1 346C691.1 536.596 536.596 691.1 346 691.1C155.404 691.1 0.900002 536.596 0.900002 346Z" fill="#7F0101" stroke="black"/>
</svg>
