<svg width="86" height="90" viewBox="0 0 86 90" fill="none" xmlns="http://www.w3.org/2000/svg">
<path d="M85.1515 81.459L79 63H72.25L75.9985 81H10.0015L13.75 63H7.00003L0.844035 81.459C-0.717465 86.157 2.05003 90 7.00003 90H79C83.95 90 86.7175 86.157 85.1515 81.459ZM65.5 22.5C65.5 16.5326 63.1295 10.8097 58.9099 6.5901C54.6904 2.37053 48.9674 0 43 0C37.0327 0 31.3097 2.37053 27.0901 6.5901C22.8706 10.8097 20.5 16.5326 20.5 22.5C20.5 43.9875 43 67.5 43 67.5C43 67.5 65.5 43.9875 65.5 22.5ZM30.85 22.77C30.85 16.0605 36.286 10.6245 43 10.6245C46.2218 10.6245 49.3116 11.9043 51.5898 14.1825C53.8679 16.4606 55.1478 19.5505 55.1478 22.7723C55.1478 25.994 53.8679 29.0839 51.5898 31.362C49.3116 33.6402 46.2218 34.92 43 34.92C39.7777 34.92 36.6873 33.6399 34.4087 31.3613C32.1301 29.0828 30.85 25.9924 30.85 22.77V22.77Z" fill="#7F0101"/>
</svg>
