<svg width="696" height="697" viewBox="0 0 696 697" fill="none" xmlns="http://www.w3.org/2000/svg">
<path d="M348.109 0.554688C155.912 0.554688 0.109131 156.357 0.109131 348.555C0.109131 540.752 155.912 696.555 348.109 696.555C540.307 696.555 696.109 540.752 696.109 348.555C696.109 156.357 540.307 0.554688 348.109 0.554688ZM489.665 285.625C489.81 288.597 489.847 291.57 489.847 294.47C489.847 385.095 420.935 489.531 294.858 489.531C257.604 489.593 221.124 478.893 189.805 458.718C195.134 459.371 200.608 459.625 206.154 459.625C238.272 459.625 267.815 448.713 291.269 430.298C276.976 430.018 263.127 425.285 251.652 416.76C240.177 408.234 231.647 396.342 227.252 382.738C237.516 384.69 248.09 384.281 258.173 381.542C242.66 378.405 228.709 369.999 218.686 357.75C208.663 345.501 203.186 330.162 203.182 314.335V313.501C212.425 318.612 223.01 321.73 234.248 322.092C219.704 312.411 209.409 297.539 205.467 280.518C201.525 263.497 204.235 245.614 213.042 230.525C230.259 251.695 251.73 269.013 276.065 281.358C300.4 293.704 327.056 300.801 354.308 302.191C350.843 287.485 352.334 272.046 358.549 258.274C364.765 244.503 375.355 233.171 388.675 226.039C401.996 218.908 417.298 216.377 432.205 218.84C447.112 221.303 460.787 228.623 471.105 239.66C486.445 236.625 501.156 230.998 514.605 223.021C509.493 238.903 498.789 252.39 484.482 260.975C498.07 259.338 511.338 255.685 523.849 250.136C514.659 263.907 503.083 275.926 489.665 285.625V285.625Z" fill="#7F0101"/>
</svg>
